<svg width="440" height="255" viewBox="0 0 440 255" fill="none" xmlns="http://www.w3.org/2000/svg">
<path fill-rule="evenodd" clip-rule="evenodd" d="M302.826 101.502V64.2646H303.4V102.075H236.905V101.502H302.826Z" stroke="#FF7373" stroke-width="0.561667"/>
<path opacity="0.3" d="M395.092 1.9248H363.872V227.677H395.092V1.9248Z" stroke="#FF7373" stroke-width="0.561667"/>
<path opacity="0.3" d="M358.533 1.9248H327.312V227.677H358.533V1.9248Z" stroke="#FF7373" stroke-width="0.561667"/>
<path fill-rule="evenodd" clip-rule="evenodd" d="M174.825 38.0312H218.966V95.7655H236.905V96.339H218.393V38.6047H174.825V38.0312Z" stroke="#FF7373" stroke-width="0.561667"/>
<path fill-rule="evenodd" clip-rule="evenodd" d="M302.826 58.5295V30.2529H303.399V58.5295H302.826Z" stroke="#FF7373" stroke-width="0.561667"/>
<path opacity="0.1" d="M98.7347 251.648C98.7347 251.648 149.89 188.135 144.384 166.688C126.425 167.043 107.053 188.44 107.053 188.44C107.053 188.44 149.524 94.3445 133.147 46.3838C99.3615 71.0173 98.7347 140.018 98.7347 140.018C98.7347 140.018 115.724 37.2174 79.6526 8.59809C68.9877 20.0309 68.9877 56.9762 68.9877 56.9762C68.9877 56.9762 61.8214 18.1038 25.8313 1.25879C15.0082 65.3462 58.0874 129.619 58.0874 129.619C58.0874 129.619 40.1772 96.7967 15.8768 91.3985C10.8874 132.315 41.5994 188.44 41.5994 188.44C41.5994 188.44 29.7327 156.516 3.32403 154.406C-7.44468 192.468 21.9169 252.313 21.9169 252.313L98.7347 251.648Z" stroke="#FF7373" stroke-width="0.561667"/>
<path opacity="0.1" d="M163.037 252.026C167.571 251.949 186.764 252.021 197.721 252.022C228.395 252.026 230.968 200.872 226.872 191.235C220.437 196.128 210.301 213.376 210.301 213.376C210.301 213.376 225.186 175.816 218.712 146.425C206.554 154.614 198.308 169.492 199.166 169.391C204.969 168.707 202.029 116.311 196.507 116.818C179.03 133.542 168.778 154.651 172.785 184.416C172.785 184.416 165.696 162.701 151.627 168.746C153.582 209.168 128.88 252.609 163.037 252.026Z" stroke="#FF7373" stroke-width="0.561667"/>
<path opacity="0.23" d="M174.825 51.2559H71.8779V252.026H174.825V51.2559Z" stroke="#FF7373" stroke-width="0.561667"/>
<path d="M157.123 86.6592H41.5991V102.031H157.123V86.6592Z" fill="#4BA0D3" stroke="#FF7373" stroke-width="0.561667"/>
<path d="M65.1665 252.026H228.395" stroke="#FF7373" stroke-width="0.561667" stroke-miterlimit="10" stroke-linecap="round"/>
<path d="M24.8296 252.026H55.5244" stroke="#FF7373" stroke-width="0.561667" stroke-miterlimit="10" stroke-linecap="round"/>
<path d="M25.0625 124.624H137.559" stroke="#FF7373" stroke-width="0.561667" stroke-miterlimit="10"/>
<path d="M415.935 248.584C418.631 245.403 417.457 238.241 416.061 238.241C413.766 238.241 411.801 246.503 411.801 246.503C411.801 246.503 408.967 235.531 403.231 230.368C403.231 230.368 402.024 240.001 403.172 245.164C403.172 245.164 399.682 237.112 395.092 238.832C395.092 238.832 398.657 251.749 399.468 252.313" stroke="#FF7373" stroke-width="0.561667" stroke-miterlimit="10" stroke-linecap="round"/>
<path d="M50.1565 252.089C50.1565 252.089 46.5753 241.061 47.8927 232.66C52.6059 235.429 54.6263 238.571 54.6263 238.571C54.6263 238.571 55.1127 235.531 60.849 230.368C60.849 230.368 62.0554 240.001 60.9079 245.164C63.0271 242.245 65.5007 239.825 68.9875 238.832C68.9875 238.832 66.7644 251.836 61.2264 252.026" stroke="#FF7373" stroke-width="0.561667" stroke-miterlimit="10" stroke-linecap="round"/>
<path fill-rule="evenodd" clip-rule="evenodd" d="M303.112 10.1625C294.83 10.1625 288.116 16.8767 288.116 25.1584C288.116 33.4402 294.83 40.1544 303.112 40.1544C311.394 40.1544 318.108 33.4402 318.108 25.1584C318.108 16.8767 311.394 10.1625 303.112 10.1625ZM287.542 25.1584C287.542 16.5593 294.513 9.58887 303.112 9.58887C311.711 9.58887 318.682 16.5593 318.682 25.1584C318.682 33.757 311.711 40.7278 303.112 40.7278C294.513 40.7278 287.542 33.757 287.542 25.1584Z" stroke="#FF7373" stroke-width="0.561667"/>
<path d="M303.112 29.6821C305.61 29.6821 307.636 27.6567 307.636 25.1584C307.636 22.6601 305.61 20.6348 303.112 20.6348C300.614 20.6348 298.588 22.6601 298.588 25.1584C298.588 27.6567 300.614 29.6821 303.112 29.6821Z" fill="#4BA0D3" stroke="#FF7373" stroke-width="0.561667"/>
<path fill-rule="evenodd" clip-rule="evenodd" d="M198.68 62.9485C196.34 62.9485 194.444 64.8458 194.444 67.1857C194.444 69.5256 196.34 71.4223 198.68 71.4223C201.021 71.4223 202.917 69.5256 202.917 67.1857C202.917 64.8458 201.021 62.9485 198.68 62.9485ZM193.87 67.1857C193.87 64.5284 196.024 62.375 198.68 62.375C201.337 62.375 203.491 64.5284 203.491 67.1857C203.491 69.8424 201.337 71.9958 198.68 71.9958C196.024 71.9958 193.87 69.8424 193.87 67.1857Z" stroke="#FF7373" stroke-width="0.561667"/>
<path fill-rule="evenodd" clip-rule="evenodd" d="M229.567 26.8371H204.671V26.2637H230.141V67.1845H229.567V26.8371Z" stroke="#FF7373" stroke-width="0.561667"/>
<path d="M271.813 148.14L268.995 150.505L251.115 66.2997L255.255 65.9829C256.675 65.874 257.952 66.8457 258.227 68.2436L273.145 144.367C273.421 145.774 272.91 147.218 271.813 148.14Z" fill="#4BA0D3" stroke="#FF7373" stroke-width="0.561667"/>
<path d="M303.112 152.65C303.112 152.65 294.347 145.504 291.731 145.691C289.114 145.879 279.931 155.32 280.906 158.294C281.881 161.267 285.445 161.267 285.445 161.267C287.224 161.267 288.876 160.306 289.721 158.74C290.722 156.886 292.128 154.792 293.116 155.42C294.809 156.498 293.384 161.267 294.558 161.267C295.732 161.267 303.112 158.959 303.112 158.959V152.65Z" fill="#F9E4D5" stroke="#6D7B81" stroke-width="0.561667"/>
<path d="M363.871 124.732L353.983 149.237C353.034 152.084 349.165 157.655 346.192 157.237L310.354 153.974" stroke="#6D7B81" stroke-width="0.561667" stroke-miterlimit="10" stroke-linecap="round"/>
<path d="M358.566 111.513C358.876 108.891 359.037 106.568 358.807 105.65C358.325 103.712 353.828 104.038 351.528 104.337C350.719 104.44 350.18 104.543 350.18 104.543L351.137 102.885V102.88L351.144 102.874L359.329 88.7285L373.526 86.7666L369.184 95.692C367.939 102.002 374.782 111.794 374.782 111.794L356.937 122.188C356.937 122.188 357.998 116.337 358.566 111.513Z" fill="#F9E4D5" stroke="#6D7B81" stroke-width="0.561667"/>
<path d="M365.444 99.8335C365.444 99.8335 363.832 110.675 358.566 111.513C358.876 108.892 359.036 106.568 358.807 105.65C358.325 103.711 353.828 104.039 351.528 104.337L351.137 102.886V102.879L351.143 102.874L358.996 98.5889L365.444 99.8335Z" fill="#E9BEA0" stroke="#6D7B81" stroke-width="0.561667"/>
<path d="M342.924 87.1744C342.611 87.1744 342.309 87.0031 342.157 86.706C341.94 86.2831 342.107 85.7647 342.53 85.5479L345.123 84.2212C345.545 84.0038 346.064 84.1712 346.281 84.5947C346.497 85.0176 346.33 85.5361 345.907 85.7523L343.315 87.0795C343.189 87.1441 343.056 87.1744 342.924 87.1744Z" fill="#383838" stroke="#6D7B81" stroke-width="0.561667"/>
<path d="M344.95 93.4157C343.28 93.4157 341.889 91.0797 341.692 87.9018C341.602 86.4494 341.79 85.0581 342.223 83.9836C342.711 82.7704 343.467 82.0717 344.353 82.0172C346.067 81.9088 347.519 84.2791 347.722 87.5272C347.924 90.7753 346.78 93.3056 345.061 93.4123C345.024 93.4146 344.987 93.4157 344.95 93.4157ZM344.461 83.1608C344.449 83.1608 344.436 83.1614 344.424 83.1619C344.017 83.1872 343.591 83.6545 343.287 84.4122C342.917 85.3311 342.757 86.5454 342.837 87.8311C342.999 90.4372 344.091 92.3317 344.991 92.2671C345.873 92.2126 346.739 90.2041 346.577 87.5985C346.417 85.03 345.338 83.1608 344.461 83.1608Z" fill="black" stroke="#E6E6E6" stroke-width="0.561667"/>
<path d="M348.699 72.0597C348.699 72.0597 347.12 79.8922 350.225 81.0082C353.329 82.1237 368.826 75.532 368.826 75.532L353.077 70.7168L348.699 72.0597Z" fill="#91826C" stroke="#6D7B81" stroke-width="0.561667"/>
<path d="M350.039 78.0089C350.039 78.0089 343.395 90.6436 348.657 104.091C348.97 104.891 349.754 105.408 350.613 105.385C353.56 105.307 361.953 103.513 366.374 100.219L367.468 95.8935L373.921 85.8992C373.921 85.8992 376.078 77.0439 368.827 75.5325C361.575 74.021 351.852 72.3641 350.039 78.0089Z" fill="#F9E4D5" stroke="#6D7B81" stroke-width="0.561667"/>
<path d="M347.856 98.9363C350.198 99.4261 351.139 97.2041 351.139 97.2041" stroke="#6D7B81" stroke-width="0.561667" stroke-miterlimit="10"/>
<path d="M376.976 87.8936C378.605 92.8615 368.842 99.0966 366.862 94.3758C366.759 94.1292 367.052 93.2114 367.43 92.0241C368.366 85.4616 362.64 86.1614 362.417 88.2665C362.36 88.8001 360.897 92.8845 359.268 91.9151C358.23 91.3012 358.798 89.7179 358.562 85.6508C356.859 84.3259 355.929 81.8248 355.424 79.582C351.828 79.1456 348.375 78.4115 347.336 77.6948C345.845 76.6675 342.351 71.7979 346.052 65.1376C349.212 59.453 374.056 67.8511 374.446 74.144C380.096 73.7941 376.356 85.4441 376.803 87.3431C376.861 87.5268 376.918 87.7099 376.976 87.8936Z" fill="#494A4A" stroke="#F9E4D5" stroke-width="0.561667"/>
<path d="M347.638 86.7676C347.638 86.7676 342.96 93.7317 343.181 94.6865C343.402 95.6413 347.856 94.9864 347.856 94.9864" fill="#F9E4D5"/>
<path d="M347.638 86.7676C347.638 86.7676 342.96 93.7317 343.181 94.6865C343.402 95.6413 347.856 94.9864 347.856 94.9864" stroke="#6D7B81" stroke-width="0.561667"/>
<path d="M362.726 90.1618C362.726 90.1618 365.063 86.1796 366.31 89.2075C367.304 91.621 365.183 95.9784 363.734 95.3746C362.316 94.7837 364.388 91.9007 364.388 91.9007" stroke="#6D7B81" stroke-width="0.561667" stroke-miterlimit="10"/>
<path d="M354.827 87.9653C354.695 87.9653 354.561 87.935 354.435 87.8704L351.227 86.2281C350.804 86.0113 350.637 85.4929 350.854 85.0699C351.07 84.647 351.589 84.4796 352.012 84.6964L355.22 86.3388C355.642 86.5556 355.81 87.074 355.594 87.4969C355.441 87.794 355.14 87.9653 354.827 87.9653Z" fill="#383838" stroke="#6D7B81" stroke-width="0.561667"/>
<path d="M351.821 95.6341C349.736 95.6341 347.975 93.192 347.774 89.9703C347.679 88.4347 347.965 86.9614 348.578 85.8207C349.232 84.6058 350.182 83.8998 351.253 83.8329C353.407 83.7038 355.26 86.1852 355.465 89.4917C355.671 92.7988 354.142 95.4943 351.987 95.6291C351.931 95.6324 351.876 95.6341 351.821 95.6341ZM351.413 84.7934C351.38 84.7934 351.346 84.7945 351.313 84.7968C350.587 84.8417 349.918 85.368 349.428 86.2779C348.898 87.2619 348.653 88.5521 348.738 89.9102C348.904 92.5848 350.365 94.7697 351.927 94.6652C353.489 94.5681 354.668 92.2265 354.502 89.5518C354.34 86.935 352.937 84.7934 351.413 84.7934Z" fill="black" stroke="#E6E6E6" stroke-width="0.561667"/>
<path d="M351.382 90.4673C351.863 90.4673 352.254 90.0775 352.254 89.5962C352.254 89.1154 351.863 88.7256 351.382 88.7256C350.902 88.7256 350.511 89.1154 350.511 89.5962C350.511 90.0775 350.902 90.4673 351.382 90.4673Z" fill="#383838" stroke="#6D7B81" stroke-width="0.561667"/>
<path d="M344.707 89.3422C345.118 89.3422 345.45 89.0091 345.45 88.5986C345.45 88.188 345.118 87.8555 344.707 87.8555C344.296 87.8555 343.963 88.188 343.963 88.5986C343.963 89.0091 344.296 89.3422 344.707 89.3422Z" fill="#383838" stroke="#6D7B81" stroke-width="0.561667"/>
<path d="M363.872 90.3576C363.872 90.3576 364.302 89.7892 364.885 90.0408" stroke="#6D7B81" stroke-width="0.561667" stroke-miterlimit="10"/>
<path d="M259.127 160.674H256.259L250.624 122.962L260.478 115.963V117.666L253.492 124.15L259.127 160.674Z" fill="#FFE7C2" stroke="#FF7373" stroke-width="0.561667"/>
<path d="M333.37 230.368L340.243 251.393C340.243 251.393 307.569 252.189 307.046 250.97C306.523 249.75 322.109 243.325 331.526 244.005L327.491 235.017L333.37 230.368Z" fill="#4BA0D3" stroke="#FF7373" stroke-width="0.561667"/>
<path fill-rule="evenodd" clip-rule="evenodd" d="M296.678 180.459C292.668 171.291 301.092 161.573 310.737 164.241L368.258 180.148C372.838 181.415 375.524 186.155 374.258 190.735C372.991 195.315 368.251 198.001 363.671 196.735L317.279 183.905L337.284 226.727C339.296 231.032 337.436 236.153 333.13 238.164C328.825 240.176 323.704 238.316 321.693 234.01L296.721 180.557L296.678 180.459Z" fill="#FFE7C2" stroke="#FF7373" stroke-width="0.561667"/>
<path fill-rule="evenodd" clip-rule="evenodd" d="M296.678 180.459C292.668 171.291 301.092 161.573 310.737 164.241L368.258 180.148C372.838 181.415 375.524 186.155 374.258 190.735C372.991 195.315 368.251 198.001 363.671 196.735L317.279 183.905L337.284 226.727C339.296 231.032 337.436 236.153 333.13 238.164C328.825 240.176 323.704 238.316 321.693 234.01L296.721 180.557L296.678 180.459Z" fill="black" fill-opacity="0.15" stroke="#FF7373" stroke-width="0.561667"/>
<path d="M274.176 239.894L259.381 250.305C259.381 250.305 257.173 247.718 254.053 244.012C252.836 242.572 251.483 240.96 250.066 239.262C242.614 230.354 233.459 219.185 233.752 218.451C234.177 217.39 250.852 228.232 258.601 235.454C259.886 236.647 260.919 237.742 261.602 238.666L268.37 233.451L270.722 231.639L271.37 233.193L272.506 235.901L274.176 239.894Z" fill="#4BA0D3" stroke="#FF7373" stroke-width="0.561667"/>
<path opacity="0.2" d="M272.844 236.707C272.844 236.707 260.099 241.386 257.788 242.79C255.477 244.195 254.635 244.707 254.635 244.707C253.419 243.267 252.158 241.766 250.742 240.068C253.136 237.978 255.767 236.469 258.602 235.454C259.886 236.647 260.919 237.743 261.602 238.667L268.37 233.452L271.371 233.194L272.844 236.707Z" fill="black" stroke="#FF7373" stroke-width="0.561667"/>
<path d="M368.978 172.409L387.171 170.562C387.171 170.562 392.751 137.351 387.171 125.955C381.209 117.281 377.156 113.134 374.75 110.197C374.22 109.549 373.327 109.333 372.561 109.671L356.436 116.804C356.436 116.804 348.559 125.777 349.678 136.836C350.797 147.896 349.683 176.382 349.683 176.382L368.978 172.409Z" fill="#E6E6E6" stroke="#6D7B81" stroke-width="0.561667"/>
<path d="M349.889 174.016C349.89 174.016 349.89 174.016 349.89 174.015L349.889 174.016ZM349.964 173.983C349.989 173.973 350.021 173.963 350.061 173.951C350.267 173.891 350.596 173.826 351.043 173.759C351.932 173.624 353.239 173.486 354.844 173.342C357.044 173.143 359.787 172.934 362.75 172.708C364.105 172.605 365.506 172.498 366.921 172.388C371.427 172.034 376.077 171.641 379.85 171.189C381.736 170.963 383.407 170.722 384.733 170.463C385.849 170.246 386.751 170.011 387.33 169.748C387.332 169.757 387.333 169.766 387.335 169.775C387.367 169.949 387.391 170.2 387.4 170.524C387.42 171.17 387.385 172.073 387.292 173.16C387.106 175.335 386.687 178.227 386.005 181.25C385.323 184.274 384.38 187.419 383.149 190.102C381.92 192.78 380.421 194.962 378.64 196.125C376.199 197.055 373.196 196.941 370.032 196.216C366.86 195.49 363.561 194.157 360.566 192.699C357.573 191.242 354.892 189.663 352.959 188.448C351.993 187.84 351.214 187.325 350.677 186.961C350.408 186.779 350.2 186.634 350.06 186.536C350.023 186.511 349.991 186.488 349.964 186.469V173.983ZM387.275 169.57C387.275 169.57 387.275 169.571 387.276 169.572C387.275 169.571 387.275 169.57 387.275 169.57Z" fill="#FFE7C2" stroke="#FF7373" stroke-width="0.561667"/>
<path d="M374.706 252.026H350.04C349.089 252.026 348.319 251.255 348.319 250.305C348.319 249.355 349.089 248.584 350.04 248.584H375.717L374.706 252.026Z" fill="#FFE7C2" stroke="#FF7373" stroke-width="0.561667"/>
<path fill-rule="evenodd" clip-rule="evenodd" d="M309.562 184.089C312.804 180.643 317.324 178.689 322.055 178.689H373.025C378.411 178.689 382.777 183.055 382.777 188.441C382.777 193.827 378.411 198.193 373.025 198.193H323.072L283.1 240.69C279.411 244.613 273.239 244.802 269.316 241.112C265.393 237.422 265.204 231.251 268.894 227.328L309.562 184.089Z" fill="#FFE7C2" stroke="#FF7373" stroke-width="0.561667"/>
<path fill-rule="evenodd" clip-rule="evenodd" d="M309.562 184.089C312.804 180.643 317.324 178.689 322.055 178.689H373.025C378.411 178.689 382.777 183.055 382.777 188.441C382.777 193.827 378.411 198.193 373.025 198.193H323.072L283.1 240.69C279.411 244.613 273.239 244.802 269.316 241.112C265.393 237.422 265.204 231.251 268.894 227.328L309.562 184.089Z" fill="#FFE7C2" stroke="#FF7373" stroke-width="0.561667"/>
<path d="M382.835 198.54H331.209C330.258 198.54 329.488 199.311 329.488 200.261C329.488 201.211 330.258 201.982 331.209 201.982H382.835V198.54Z" fill="#FFE7C2" stroke="#FF7373" stroke-width="0.561667"/>
<path d="M374.992 252.066L402.674 119.014C402.866 118.09 402.279 117.184 401.357 116.982C400.422 116.778 399.5 117.376 399.305 118.313L371.63 251.33L374.992 252.066Z" fill="#FFE7C2" stroke="#FF7373" stroke-width="0.561667"/>
<path d="M388.544 173.878H343.313C341.416 173.878 339.879 175.416 339.879 177.313C339.879 179.21 341.416 180.748 343.313 180.748H388.544V173.878Z" fill="#FFE7C2" stroke="#FF7373" stroke-width="0.561667"/>
<path fill-rule="evenodd" clip-rule="evenodd" d="M374.992 252.066L375.716 248.587L375.717 248.584H375.716L402.674 119.014C402.866 118.091 402.279 117.184 401.357 116.982C400.422 116.778 399.5 117.376 399.305 118.313L387.744 173.879H343.313C341.416 173.879 339.878 175.417 339.878 177.313C339.878 179.21 341.416 180.748 343.313 180.748H386.315L382.613 198.54H331.209C330.258 198.54 329.488 199.31 329.488 200.261C329.488 201.211 330.258 201.982 331.209 201.982H381.897L372.201 248.584H350.04C349.089 248.584 348.319 249.355 348.319 250.305C348.319 251.256 349.089 252.026 350.04 252.026H374.706L374.713 252.004L374.992 252.066Z" fill="white" fill-opacity="0.21" stroke="#FF7373" stroke-width="0.561667"/>
<path d="M279.153 163.114H245.216V158.402C245.216 157.694 245.851 157.156 246.549 157.273L278.198 161.988C278.75 162.081 279.153 162.558 279.153 163.117V163.114Z" fill="#FFE7C2" stroke="#FF7373" stroke-width="0.561667"/>
<path d="M267.74 151.133C266.311 151.414 264.925 150.482 264.645 149.053L249.034 69.3941C248.754 67.9647 249.685 66.5791 251.115 66.2988C252.544 66.0185 253.93 66.9503 254.21 68.3798L269.821 148.038C270.102 149.468 269.17 150.854 267.74 151.133Z" fill="#FFE7C2" stroke="#FF7373" stroke-width="0.561667"/>
<path d="M305.467 161.268H281.236V162.9H305.467V161.268Z" fill="#FFE7C2" stroke="#FF7373" stroke-width="0.561667"/>
<path d="M310.354 150.717C310.354 150.717 301.589 143.57 298.973 143.758C296.356 143.945 284.551 157.213 285.527 160.186C286.502 163.16 290.388 161.267 290.388 161.267C292.167 161.267 295.401 160.423 296.246 158.857C297.247 157.002 301.938 161.267 303.112 161.267C305.468 161.267 310.354 157.026 310.354 157.026V150.717Z" fill="#F9E4D5" stroke="#6D7B81" stroke-width="0.561667"/>
<path d="M373.025 129.619L363.953 156.835C363.004 159.682 359.134 165.252 356.163 164.835L315.356 155.158" stroke="#6D7B81" stroke-width="0.561667" stroke-miterlimit="10" stroke-linecap="round"/>
<path d="M303.232 252.319C303.232 253.11 302.589 253.747 301.798 253.747C276.696 253.672 258.196 253.449 254.657 253.179C253.125 253.058 251.926 252.606 250.992 251.791C248.777 249.858 248.611 246.474 248.835 244.959C249.442 240.806 254.393 239.062 259.642 237.215C262.217 236.303 264.879 235.368 267.271 234.112C278.634 228.152 287.514 213.645 285.535 204.26C283.952 196.746 275.273 192.272 266.881 187.946C258.362 183.552 244.986 179.405 245.943 172.171C246.202 170.25 246.896 168.368 248.032 166.556H260.84C259.142 168.173 257.41 170.066 256.871 172.412C256.005 176.181 260.272 181.31 268.194 185.399C276.765 189.816 286.476 194.824 288.34 203.669C289.47 209.027 287.824 215.607 283.7 222.198C279.827 228.381 274.327 233.647 268.602 236.653C266.026 238.001 263.267 238.976 260.594 239.917C256.189 241.471 252.029 242.934 251.674 245.372C251.536 246.301 251.651 248.561 252.873 249.628C253.332 250.024 253.986 250.248 254.88 250.317C258.351 250.587 276.77 250.805 301.803 250.879C302.595 250.879 303.237 251.527 303.232 252.319Z" fill="#4BA0D3" stroke="#FF7373" stroke-width="0.561667"/>
<path opacity="0.71" d="M326.521 163.113H233.02V166.555H326.521V163.113Z" stroke="#FF7373" stroke-width="0.561667"/>
<path fill-rule="evenodd" clip-rule="evenodd" d="M396.241 93.1703L392.039 110.22L385.37 108.576L393.052 77.4066C393.505 75.5649 395.366 74.4393 397.208 74.8937C399.05 75.3475 400.175 77.2083 399.721 79.05L396.518 92.0498L402.176 92.8193L395.098 124.856C395.03 125.165 394.724 125.361 394.414 125.292C394.105 125.224 393.909 124.917 393.978 124.608L400.787 93.7882L396.241 93.1703Z" fill="#FFE7C2" stroke="#FF7373" stroke-width="0.561667"/>
<path fill-rule="evenodd" clip-rule="evenodd" d="M396.241 93.1703L392.039 110.22L385.37 108.576L393.052 77.4066C393.505 75.5649 395.366 74.4393 397.208 74.8937C399.05 75.3475 400.175 77.2083 399.721 79.05L396.518 92.0498L402.176 92.8193L395.098 124.856C395.03 125.165 394.724 125.361 394.414 125.292C394.105 125.224 393.909 124.917 393.978 124.608L400.787 93.7882L396.241 93.1703Z" fill="white" fill-opacity="0.21" stroke="#FF7373" stroke-width="0.561667"/>
<path d="M372.067 207.598H377.778L370.835 239.026" stroke="#FF7373" stroke-width="0.561667" stroke-miterlimit="10" stroke-linecap="round"/>
<path d="M407.919 251.648H439.05" stroke="#FF7373" stroke-width="0.561667" stroke-miterlimit="10" stroke-linecap="round"/>
<path d="M348.319 251.648H396.926" stroke="#FF7373" stroke-width="0.561667" stroke-miterlimit="10" stroke-linecap="round"/>
<path fill-rule="evenodd" clip-rule="evenodd" d="M198.681 67.4729H123.351V66.8994H198.681V67.4729Z" stroke="#FF7373" stroke-width="0.561667"/>
<path d="M264.327 1.25293H140.29V7.86684H264.327V1.25293Z" fill="#4BA0D3" stroke="#FF7373" stroke-width="0.561667"/>
<path d="M345.515 25.1582H407.919" stroke="#FF7373" stroke-width="0.561667" stroke-miterlimit="10"/>
<path d="M345.515 20.6348H407.919" stroke="#FF7373" stroke-width="0.561667" stroke-miterlimit="10"/>
<path d="M71.8779 62.6616V51.2559H83.8706" stroke="#FF7373" stroke-width="0.561667" stroke-miterlimit="10"/>
<path d="M174.825 171.047V205.417" stroke="#FF7373" stroke-width="0.561667" stroke-miterlimit="10"/>
<path d="M202.308 180.755H86.7837V196.127H202.308V180.755Z" fill="#4BA0D3" stroke="#FF7373" stroke-width="0.561667"/>
<path d="M240.764 252.313C240.764 252.313 230.726 241.34 233.02 241.34C235.315 241.34 241.624 246.503 241.624 246.503C241.624 246.503 244.458 235.531 250.195 230.368C250.195 230.368 251.401 240.001 250.254 245.164C250.254 245.164 253.744 237.112 258.333 238.832C258.333 238.832 254.768 251.749 253.957 252.313" stroke="#FF7373" stroke-width="0.561667" stroke-miterlimit="10" stroke-linecap="round"/>
</svg>
